<?xml version="1.0" ?><!DOCTYPE svg  PUBLIC '-//W3C//DTD SVG 1.1//EN'  'http://www.w3.org/Graphics/SVG/1.1/DTD/svg11.dtd'><svg enable-background="new 0 0 32 32" height="32px" version="1.1" viewBox="0 0 32 32" width="32px" xml:space="preserve" xmlns="http://www.w3.org/2000/svg" xmlns:xlink="http://www.w3.org/1999/xlink"><g id="vk_x2C__Vkontakte"><path d="M20.14,30H11.86C4.027,30,2,27.973,2,20.14v-8.28C2,4.027,4.027,2,11.86,2h8.279   C27.973,2,30,4.027,30,11.86v8.28C30,27.973,27.973,30,20.14,30z M11.86,3C4.573,3,3,4.573,3,11.86v8.28   C3,27.427,4.573,29,11.86,29h8.279c7.287,0,8.86-1.573,8.86-8.86v-8.28C29,4.573,27.427,3,20.14,3H11.86z" fill="#263238"/><g><path d="M25.219,22.876h-2.188c-0.81,0-1.216-0.453-1.891-1.203c-0.266-0.295-0.592-0.658-1.025-1.092    c-1.194-1.151-1.7-1.267-1.886-1.267c-0.007,0.049-0.013,0.127-0.013,0.249v1.962c0,1.121-0.824,1.351-2.063,1.351    c-2.596,0-5.244-1.577-7.084-4.218c-2.65-3.715-3.543-6.735-3.543-7.542c0-0.711,0.456-1.119,1.25-1.119h2.188    c0.96,0,1.253,0.613,1.452,1.187c0.985,2.871,2.437,5.01,3.041,5.437c0.005-0.065,0.009-0.151,0.009-0.267v-3.222    c-0.041-0.729-0.283-1.029-0.497-1.293c-0.175-0.216-0.373-0.461-0.373-0.839c0-0.482,0.404-1.003,1.057-1.003h3.438    c0.514,0,1.125,0.226,1.125,1.304v4.335c0,0.02,0.001,0.038,0.002,0.055c0.113-0.078,0.274-0.225,0.505-0.455    c1.479-1.655,2.569-4.284,2.58-4.311c0.261-0.61,0.749-0.929,1.415-0.929h2.188c0.473,0,0.818,0.142,1.025,0.42    c0.138,0.185,0.27,0.514,0.116,1.028c-0.282,1.299-2.737,4.783-3.017,5.176c-0.021,0.035-0.106,0.173-0.117,0.22l0,0    c0.003,0,0.021,0.049,0.104,0.157c0.101,0.139,0.35,0.383,0.591,0.62c0.298,0.292,0.635,0.623,0.903,0.94    c1.18,1.327,1.743,2.122,1.94,2.734c0.164,0.566,0.019,0.922-0.133,1.123C26.163,22.626,25.845,22.876,25.219,22.876z     M18.289,18.313c0.452,0,1.106,0.185,2.526,1.554c0.456,0.456,0.794,0.831,1.069,1.137c0.654,0.729,0.813,0.872,1.146,0.872h2.188    c0.207,0,0.291-0.047,0.302-0.06l0,0c0,0,0.025-0.061-0.024-0.23c-0.184-0.572-1.026-1.569-1.739-2.372    c-0.257-0.304-0.57-0.61-0.848-0.881c-0.309-0.302-0.552-0.541-0.691-0.735c-0.498-0.641-0.303-1.072-0.018-1.53    c0.741-1.046,2.669-3.909,2.88-4.872c0.029-0.102,0.036-0.158,0.036-0.185c-0.018,0.002-0.085-0.013-0.21-0.013h-2.188    c-0.299,0-0.407,0.116-0.492,0.315c-0.044,0.107-1.162,2.806-2.776,4.611c-0.514,0.515-0.877,0.839-1.393,0.839    c-0.405,0-0.841-0.353-0.841-1.126v-4.335c0-0.192-0.023-0.273-0.034-0.301c-0.011,0.004-0.038-0.002-0.091-0.003h-3.438    c-0.049,0.038,0.037,0.144,0.094,0.214c0.263,0.325,0.659,0.816,0.719,1.894l0.001,3.25c0,0.399,0,1.335-0.906,1.335    c-1.283,0-3.199-3.589-4.089-6.179c-0.178-0.513-0.261-0.513-0.507-0.513H6.777c-0.196,0-0.253,0.038-0.254,0.038    c0.004,0.431,0.624,3.204,3.364,7.046c1.656,2.377,3.997,3.794,6.267,3.794c1.063,0,1.063-0.147,1.063-0.351v-1.962    C17.217,18.945,17.344,18.313,18.289,18.313z" fill="#263238"/></g></g></svg>